<?xml version="1.0" encoding="UTF-8"?>
<svg xmlns="http://www.w3.org/2000/svg" version="1.1" viewBox="0 0 262.6 70.3">
  <defs>
    <style>
      .cls-1 {
        fill: #fff;
      }
    </style>
  </defs>
  <!-- Generator: Adobe Illustrator 28.7.4, SVG Export Plug-In . SVG Version: 1.2.0 Build 166)  -->
  <g>
    <g id="Capa_1">
      <g id="Capa_x5F_1">
        <path class="cls-1" d="M230.7,30.5v-5.4c0-1-.4-1.4-1.2-1.4h-10c-.9,0-1.4.5-1.4,1.3v5.5h1.4v-2.7h9.7v2.7h1.5ZM219.5,26.3v-.5c0-.3.2-.5.5-.5h8.7c.3,0,.5.1.5.5v.5s-9.7,0-9.7,0ZM244.7,28.4c0,.3-.1.5-.5.5h-8.8c-.2,0-.5-.1-.5-.5v-2.7c0-.3.1-.5.4-.5h10.7v-1.6h-11.4c-.8,0-1.2.5-1.2,1.4v4.1c0,1.1.7,1.3,1.4,1.3h10c.6,0,1.2-.3,1.2-1.3v-2.4h-1.4v1.6h0Z"/>
        <path class="cls-1" d="M68.2,53l-7-11.2c4.4,0,6.9-3.6,6.9-6.9v-4.2c0-4.4-2.5-6.9-6.9-6.9H14.4v29.3h6.9v-11.2h31.8l6.9,11.2h8.2s0,0,0,0ZM59.6,30.6c1.2,0,1.6.7,1.6,2.1s-.5,2.1-1.6,2.1H21.3v-4.2s38.4,0,38.4,0h0ZM120.5,43.5c0,1.7-.9,2.6-2.6,2.6h-34.8c-1.7,0-2.6-.9-2.6-2.6v-10.3c0-1.7.9-2.6,2.6-2.6h34.8c1.7,0,2.6.9,2.6,2.6v10.3h0ZM106.3,53h14.2c4.4,0,6.9-2.5,6.9-6.9v-15.4c0-4.4-2.5-6.9-6.9-6.9h-39.9c-4.4,0-6.9,2.5-6.9,6.9v15.4c0,4.4,2.5,6.9,6.9,6.9h25.7ZM179.9,43.5c0,1.7-.9,2.6-2.6,2.6h-34.8c-1.7,0-2.6-.9-2.6-2.6v-10.3c0-1.7.9-2.6,2.6-2.6h34.8c1.7,0,2.6.9,2.6,2.6v10.3ZM165.7,53h14.2c4.4,0,6.9-2.5,6.9-6.9v-15.4c0-4.4-2.5-6.9-6.9-6.9h-39.9c-4.4,0-6.9,2.5-6.9,6.9v15.4c0,4.4,2.5,6.9,6.9,6.9h25.7ZM246.2,46.1v-4.2c0-4.4-2.5-6.9-6.9-6.9h-38.3c-1.2,0-1.6-.6-1.6-2.1s.4-2.1,1.6-2.1h13.9v-6.9h-15.5c-4.4,0-6.9,2.5-6.9,6.9v4.2c0,4.4,2.5,6.9,6.9,6.9h38.3c.7,0,1.6.4,1.6,2.1s-.9,2.1-1.6,2.1h-45.3v6.9h46.8c4.4,0,6.9-2.5,6.9-6.9h0Z"/>
      </g>
    </g>
  </g>
</svg>